<?xml version="1.0" standalone="no"?><svg xmlns="http://www.w3.org/2000/svg" viewBox="0 0 1440 320"><path fill="#a2d9ff" fill-opacity="1" d="M0,64L30,106.7C60,149,120,235,180,224C240,213,300,107,360,101.3C420,96,480,192,540,224C600,256,660,224,720,208C780,192,840,192,900,192C960,192,1020,192,1080,186.7C1140,181,1200,171,1260,176C1320,181,1380,203,1410,213.3L1440,224L1440,320L1410,320C1380,320,1320,320,1260,320C1200,320,1140,320,1080,320C1020,320,960,320,900,320C840,320,780,320,720,320C660,320,600,320,540,320C480,320,420,320,360,320C300,320,240,320,180,320C120,320,60,320,30,320L0,320Z"></path></svg>